g my_shoppingmall_01_wall_left_1x2
v -2.1 0.03192811 5.176676
v -2.1 -2.908707E-07 5.144747
v -2.1 0.06385651 5.144747
v 0.2999997 0.03192853 5.176676
v 0.3 0.06385693 5.144747
v 0.3 1.28746E-07 5.144747
v 0.3 0.3000003 -0.2850013
v -0.9 0.3000004 -0.2850012
v -0.9000002 3.910065E-07 -0.2850012
v 0.2999998 3.528595E-07 -0.2850013
v 0.3000001 0.3000004 4.514999
v 0.3000001 3.71933E-07 4.514999
v -0.8999997 3.957748E-07 4.514999
v -0.8999997 0.3000004 4.514999
v 0.3 0.3000003 0.5091817
v 0.3 0.3000003 -0.2850013
v 0.2999998 3.528595E-07 -0.2850013
v 0.2999998 3.623962E-07 0.5091816
v 0.2999998 3.623962E-07 0.5091816
v 0.2999998 3.528595E-07 -0.2850013
v -0.9000002 3.910065E-07 -0.2850012
v -0.9 3.910065E-07 0.5091817
v -0.9 3.910065E-07 0.5091817
v -0.9000002 3.910065E-07 -0.2850012
v -0.9 0.3000004 -0.2850012
v -0.9 0.3000004 0.5091817
v -0.9 0.3000004 0.5091817
v -0.9 0.3000004 -0.2850012
v 0.3 0.3000003 -0.2850013
v 0.3 0.3000003 0.5091817
v -0.8999999 0.3000001 -0.2850012
v -2.1 0.3000002 -0.2850012
v -2.1 1.811981E-07 -0.2850012
v -0.9000002 1.621246E-07 -0.2850012
v -0.8999999 0.3000001 4.514999
v -0.8999999 1.621246E-07 4.514999
v -2.1 1.811981E-07 4.514999
v -2.1 0.3000002 4.514999
v -0.8999999 0.3000001 0.5091817
v -0.8999999 0.3000001 -0.2850012
v -0.9000002 1.621246E-07 -0.2850012
v -0.9 1.621246E-07 0.5091817
v -0.9 1.621246E-07 0.5091817
v -0.9000002 1.621246E-07 -0.2850012
v -2.1 1.811981E-07 -0.2850012
v -2.1 1.811981E-07 0.5091817
v -2.1 1.811981E-07 0.5091817
v -2.1 1.811981E-07 -0.2850012
v -2.1 0.3000002 -0.2850012
v -2.1 0.3000002 0.5091817
v -2.1 0.3000002 0.5091817
v -2.1 0.3000002 -0.2850012
v -0.8999999 0.3000001 -0.2850012
v -0.8999999 0.3000001 0.5091817
v 0.3000001 0.3000003 3.70839
v 0.3 0.3000003 0.5091817
v 0.2999998 3.623962E-07 0.5091816
v 0.3000001 3.71933E-07 3.70839
v 0.3000001 3.71933E-07 3.70839
v 0.2999998 3.623962E-07 0.5091816
v -0.9 3.910065E-07 0.5091817
v -0.8999999 3.910065E-07 3.70839
v -0.8999999 3.910065E-07 3.70839
v -0.9 3.910065E-07 0.5091817
v -0.9 0.3000004 0.5091817
v -0.8999997 0.3000004 3.70839
v -0.8999997 0.3000004 3.70839
v -0.9 0.3000004 0.5091817
v 0.3 0.3000003 0.5091817
v 0.3000001 0.3000003 3.70839
v -0.8999997 0.3000001 3.70839
v -0.8999999 0.3000001 0.5091817
v -0.9 1.621246E-07 0.5091817
v -0.8999999 1.621246E-07 3.70839
v -0.8999999 1.621246E-07 3.70839
v -0.9 1.621246E-07 0.5091817
v -2.1 1.811981E-07 0.5091817
v -2.1 1.811981E-07 3.70839
v -2.1 1.811981E-07 3.70839
v -2.1 1.811981E-07 0.5091817
v -2.1 0.3000002 0.5091817
v -2.1 0.3000001 3.70839
v -2.1 0.3000001 3.70839
v -2.1 0.3000002 0.5091817
v -0.8999999 0.3000001 0.5091817
v -0.8999997 0.3000001 3.70839
v 0.3000001 0.3000004 4.514999
v 0.3000001 0.3000004 4.437339
v 0.3000001 3.71933E-07 4.437339
v 0.3000001 3.71933E-07 4.514999
v 0.3000001 3.71933E-07 4.514999
v 0.3000001 3.71933E-07 4.437339
v -0.8999997 3.957748E-07 4.437339
v -0.8999997 3.957748E-07 4.514999
v -0.8999997 3.957748E-07 4.514999
v -0.8999997 3.957748E-07 4.437339
v -0.8999997 0.3000004 4.437339
v -0.8999997 0.3000004 4.514999
v -0.8999997 0.3000004 4.514999
v -0.8999997 0.3000004 4.437339
v 0.3000001 0.3000004 4.437339
v 0.3000001 0.3000004 4.514999
v -0.8999999 0.3000001 4.514999
v -0.8999999 0.3000001 4.437339
v -0.8999999 1.621246E-07 4.437339
v -0.8999999 1.621246E-07 4.514999
v -0.8999999 1.621246E-07 4.514999
v -0.8999999 1.621246E-07 4.437339
v -2.1 1.811981E-07 4.437339
v -2.1 1.811981E-07 4.514999
v -2.1 1.811981E-07 4.514999
v -2.1 1.811981E-07 4.437339
v -2.1 0.3000002 4.437339
v -2.1 0.3000002 4.514999
v -2.1 0.3000002 4.514999
v -2.1 0.3000002 4.437339
v -0.8999999 0.3000001 4.437339
v -0.8999999 0.3000001 4.514999
v 0.3000001 0.3000004 4.437339
v 0.3000001 0.3000003 3.70839
v 0.3000001 3.71933E-07 3.70839
v 0.3000001 3.71933E-07 4.437339
v 0.3000001 3.71933E-07 4.437339
v 0.3000001 3.71933E-07 3.70839
v -0.8999999 3.910065E-07 3.70839
v -0.8999997 3.957748E-07 4.437339
v -0.8999997 3.957748E-07 4.437339
v -0.8999999 3.910065E-07 3.70839
v -0.8999997 0.3000004 3.70839
v -0.8999997 0.3000004 4.437339
v -0.8999997 0.3000004 4.437339
v -0.8999997 0.3000004 3.70839
v 0.3000001 0.3000003 3.70839
v 0.3000001 0.3000004 4.437339
v -0.8999999 0.3000001 4.437339
v -0.8999997 0.3000001 3.70839
v -0.8999999 1.621246E-07 3.70839
v -0.8999999 1.621246E-07 4.437339
v -0.8999999 1.621246E-07 4.437339
v -0.8999999 1.621246E-07 3.70839
v -2.1 1.811981E-07 3.70839
v -2.1 1.811981E-07 4.437339
v -2.1 1.811981E-07 4.437339
v -2.1 1.811981E-07 3.70839
v -2.1 0.3000001 3.70839
v -2.1 0.3000002 4.437339
v -2.1 0.3000002 4.437339
v -2.1 0.3000001 3.70839
v -0.8999997 0.3000001 3.70839
v -0.8999999 0.3000001 4.437339
v -2.1 0.06385655 4.514999
v -2.068072 0.03192812 5.11282
v -2.1 0.06385651 5.144747
v -2.068072 0.03192816 4.514999
v -2.1 -2.908707E-07 5.144747
v -2.1 -2.479553E-07 4.514999
v -2.1 0.06385655 4.514999
v -2.1 0.06385651 5.144747
v -2.09534 0.03192814 4.706642
v -2.09534 0.009578262 4.684292
v -2.09534 0.03192814 4.661942
v -2.09534 0.05427802 4.684292
v 0.3 0.06385697 4.514999
v 0.3 0.06385693 5.144747
v 0.2680716 0.03192853 5.11282
v 0.2680716 0.03192857 4.514999
v 0.3 1.28746E-07 5.144747
v 0.3 1.716614E-07 4.514999
v 0.3 0.06385697 4.514999
v 0.3 0.06385693 5.144747
v 0.2953406 0.03192857 4.661942
v 0.2953406 0.009578681 4.684292
v 0.2953406 0.03192857 4.706642
v 0.2953406 0.05427844 4.684292
v 0.2680716 0.03192853 5.11282
v -0.9 1.28746E-07 5.144747
v 0.3 1.28746E-07 5.144747
v 0.2999997 0.03192853 5.176676
v -0.9 0.03192853 5.176676
v 0.3 0.06385693 5.144747
v -0.9 0.06385693 5.144747
v -0.9 0.03192853 5.11282
v -2.068072 0.03192812 5.11282
v -2.1 0.06385651 5.144747
v -2.1 -2.908707E-07 5.144747
v -2.1 0.03192811 5.176676
v -0.9145274 0.03192855 5.148291
v -0.9 0.01740113 5.148291
v -0.9 0.01740114 4.684292
v -0.8854725 0.03192855 5.148291
v -0.9145274 0.03192855 4.684292
v -0.8854725 0.03192856 4.684292
v -0.9 0.04645597 5.148291
v -0.9 0.04645598 4.684292
v 0.2953406 0.05427844 4.684292
v 0.2953406 0.03192857 4.706642
v -0.9 0.03192856 4.706642
v -0.9 0.05427844 4.684292
v 0.2953406 0.03192857 4.661942
v -0.9 0.009578681 4.684292
v 0.2953406 0.009578681 4.684292
v -0.9 0.03192856 4.661942
v -2.09534 0.03192814 4.706642
v -2.09534 0.009578262 4.684292
v -2.09534 0.05427802 4.684292
v -2.09534 0.03192814 4.661942
v -2.068072 0.03192862 4.706642
v -2.068072 0.0319286 5.11282
v -0.9145274 0.0319288 5.11282
v -0.9145274 0.03192882 4.706642
v -0.8854725 0.03192883 4.706642
v -0.8854725 0.0319288 5.11282
v 0.2680716 0.03192901 5.11282
v 0.2680716 0.03192902 4.706642
v -2.068072 0.03192862 4.514999
v -2.068072 0.0319286 4.661942
v 0.2680716 0.03192901 4.661942
v 0.2680716 0.03192902 4.514999
vt 0.4916309 0.1211382
vt 0.5062639 0.1429508
vt 0.5062633 0.09932431
vt 0.4916309 0.1211382
vt 0.5062633 0.09932431
vt 0.5062639 0.1429508
vt 0.7859342 1.039287
vt 0.7859527 1.039287
vt 0.7859527 1.039292
vt 0.7859342 1.039292
vt 0.8572857 0.3440445
vt 0.8572859 0.4357294
vt 0.4938231 0.4357294
vt 0.4938231 0.3440446
vt 0.6703942 0.9901271
vt 0.4915967 0.9901275
vt 0.4915967 0.8900302
vt 0.6703942 0.8900301
vt 0.6703942 0.8755723
vt 0.4915967 0.8755724
vt 0.4915966 0.4542314
vt 0.6703941 0.4542314
vt 0.6703942 0.9901257
vt 0.4915967 0.9901256
vt 0.4915967 0.8900284
vt 0.6703942 0.8900284
vt 0.6703942 0.8755723
vt 0.4915967 0.8755724
vt 0.4915966 0.4542314
vt 0.6703941 0.4542314
vt 0.7859342 1.039287
vt 0.7859527 1.039287
vt 0.7859527 1.039292
vt 0.7859342 1.039292
vt 0.8572857 0.3440445
vt 0.8572859 0.4357294
vt 0.4938231 0.4357294
vt 0.4938231 0.3440446
vt 0.6703942 0.9901271
vt 0.4915967 0.9901275
vt 0.4915967 0.8900302
vt 0.6703942 0.8900301
vt 0.6703942 0.8755723
vt 0.4915967 0.8755724
vt 0.4915966 0.4542314
vt 0.6703941 0.4542314
vt 0.6703942 0.9901257
vt 0.4915967 0.9901256
vt 0.4915967 0.8900284
vt 0.6703942 0.8900284
vt 0.6703942 0.8755723
vt 0.4915967 0.8755724
vt 0.4915966 0.4542314
vt 0.6703941 0.4542314
vt 0.01046807 0.9882215
vt 0.01046745 0.01781461
vt 0.09788789 0.01781458
vt 0.09788851 0.9882215
vt 0.4806642 0.9888783
vt 0.4806642 0.01835183
vt 0.1101418 0.01835183
vt 0.1101418 0.9888783
vt 0.01046831 0.9882215
vt 0.01046882 0.01781458
vt 0.09788928 0.01781458
vt 0.09788882 0.9882215
vt 0.1101418 0.9888783
vt 0.1101418 0.01835183
vt 0.4806642 0.01835185
vt 0.4806642 0.9888783
vt 0.01046807 0.9882215
vt 0.01046745 0.01781458
vt 0.09788789 0.01781458
vt 0.09788851 0.9882215
vt 0.4806642 0.9888783
vt 0.4806642 0.01835183
vt 0.1101418 0.01835183
vt 0.1101418 0.9888783
vt 0.01046831 0.9882215
vt 0.01046882 0.01781458
vt 0.09788928 0.01781458
vt 0.09788882 0.9882215
vt 0.1101418 0.9888783
vt 0.1101418 0.01835183
vt 0.4806642 0.01835183
vt 0.4806642 0.9888783
vt 0.7128794 0.9901271
vt 0.6856095 0.9901271
vt 0.6856095 0.89003
vt 0.7128794 0.89003
vt 0.7128794 0.8755723
vt 0.6856095 0.8755723
vt 0.6856094 0.4542313
vt 0.7128794 0.4542313
vt 0.7128794 0.9901271
vt 0.6856095 0.9901271
vt 0.6856095 0.8900298
vt 0.7128794 0.8900298
vt 0.7128794 0.8755723
vt 0.6856095 0.8755723
vt 0.6856094 0.4542313
vt 0.7128794 0.4542313
vt 0.7128794 0.9901271
vt 0.6856095 0.9901271
vt 0.6856095 0.89003
vt 0.7128794 0.89003
vt 0.7128794 0.8755723
vt 0.6856095 0.8755723
vt 0.6856094 0.4542313
vt 0.7128794 0.4542313
vt 0.7128794 0.9901271
vt 0.6856095 0.9901271
vt 0.6856095 0.8900298
vt 0.7128794 0.8900298
vt 0.7128794 0.8755723
vt 0.6856095 0.8755723
vt 0.6856094 0.4542313
vt 0.7128794 0.4542313
vt 0.9829369 0.9901271
vt 0.7269692 0.9901275
vt 0.7269692 0.8900302
vt 0.9829369 0.8900301
vt 0.9829369 0.4542313
vt 0.7269692 0.4542313
vt 0.7269691 0.8755723
vt 0.9829368 0.8755723
vt 0.9829369 0.9901271
vt 0.7269692 0.9901271
vt 0.7269692 0.8900298
vt 0.9829369 0.89003
vt 0.9829369 0.8755723
vt 0.7269692 0.8755723
vt 0.7269691 0.4542313
vt 0.9829368 0.4542313
vt 0.9829369 0.9901271
vt 0.7269692 0.9901275
vt 0.7269692 0.8900302
vt 0.9829369 0.8900301
vt 0.9829369 0.4542313
vt 0.7269692 0.4542313
vt 0.7269691 0.8755723
vt 0.9829368 0.8755723
vt 0.9829369 0.9901271
vt 0.7269692 0.9901271
vt 0.7269692 0.8900298
vt 0.9829369 0.89003
vt 0.9829369 0.8755723
vt 0.7269692 0.8755723
vt 0.7269691 0.4542313
vt 0.9829368 0.4542313
vt 0.8574255 0.2046047
vt 0.5208992 0.1738071
vt 0.5062697 0.2046594
vt 0.8574225 0.1737647
vt 0.5062639 0.1429508
vt 0.8574198 0.1429343
vt 0.8574192 0.09932169
vt 0.5062633 0.09932431
vt 0.8669771 0.1706435
vt 0.9249515 0.1706435
vt 0.9829259 0.1706435
vt 0.9249515 0.1706435
vt 0.8574255 0.2046047
vt 0.5062697 0.2046594
vt 0.5208992 0.1738071
vt 0.8574225 0.1737647
vt 0.5062639 0.1429508
vt 0.8574198 0.1429343
vt 0.8574192 0.09932169
vt 0.5062633 0.09932431
vt 0.9829259 0.1706435
vt 0.9249515 0.1706435
vt 0.8669771 0.1706435
vt 0.9249515 0.1706435
vt 0.5051003 0.2210798
vt 0.8554847 0.2717129
vt 0.4955228 0.2717129
vt 0.4955228 0.322346
vt 0.8554847 0.322346
vt 0.4955228 0.2717129
vt 0.8554847 0.2717129
vt 0.8554847 0.2210798
vt 0.5051003 0.2210798
vt 0.4955228 0.2717129
vt 0.4955228 0.2717129
vt 0.4955228 0.322346
vt 0.8575218 0.04798264
vt 0.8575218 0.01060344
vt 0.4985648 0.01060344
vt 0.8575218 0.04798264
vt 0.4985648 0.04798264
vt 0.4985648 0.04798264
vt 0.8575218 0.08536182
vt 0.4985648 0.08536182
vt 0.9249515 0.1706435
vt 0.8669771 0.1706435
vt 0.8669771 0.4385447
vt 0.9249515 0.4385447
vt 0.9829259 0.1706435
vt 0.9249515 0.4385447
vt 0.9249515 0.1706435
vt 0.9829259 0.4385447
vt 0.8669771 0.1706435
vt 0.9249515 0.1706435
vt 0.9249515 0.1706435
vt 0.9829259 0.1706435
vt 0.9843705 0.009627236
vt 0.8694085 0.009627236
vt 0.8694085 0.1691169
vt 0.9843705 0.1691169
vt 0.9843705 0.009627236
vt 0.8694085 0.009627236
vt 0.8694085 0.169117
vt 0.9843705 0.169117
vt 0.9843413 0.009627236
vt 0.8694085 0.009627236
vt 0.8694085 0.1692381
vt 0.9843413 0.1692381
vn -1 0 9.558037E-06
vn -1 0 9.558037E-06
vn -1 0 9.558037E-06
vn 1 0 9.558037E-06
vn 1 0 9.558037E-06
vn 1 0 9.558037E-06
vn 0 0 -1
vn 0 0 -1
vn 0 0 -1
vn 0 0 -1
vn 0 0 1
vn 0 0 1
vn 0 0 1
vn 0 0 1
vn 1 -4.45048E-07 0
vn 1 -5.086263E-07 0
vn 1 -5.086263E-07 0
vn 1 -4.450481E-07 0
vn 0 -1 0
vn 0 -1 0
vn 0 -1 0
vn 0 -1 0
vn -1 3.178915E-07 0
vn -1 3.814697E-07 0
vn -1 3.814697E-07 0
vn -1 3.178915E-07 0
vn 0 1 0
vn 0 1 0
vn 0 1 0
vn 0 1 0
vn 0 0 -1
vn 0 0 -1
vn 0 0 -1
vn 0 0 -1
vn 0 0 1
vn 0 0 1
vn 0 0 1
vn 0 0 1
vn 1 -5.086263E-07 0
vn 1 -6.35783E-07 0
vn 1 -6.35783E-07 0
vn 1 -5.086263E-07 0
vn 0 -1 0
vn 0 -1 0
vn 0 -1 0
vn 0 -1 0
vn -1 -3.814697E-07 1.556854E-07
vn -1 -5.086263E-07 1.921319E-07
vn -1 -5.086263E-07 1.921319E-07
vn -1 -3.814697E-07 1.556854E-07
vn 0 1 0
vn 0 1 0
vn 0 1 0
vn 0 1 0
vn 1 -2.543131E-07 0
vn 1 -4.45048E-07 0
vn 1 -4.450481E-07 0
vn 1 -2.543131E-07 0
vn 0 -1 0
vn 0 -1 0
vn 0 -1 0
vn 0 -1 0
vn -1 1.907349E-07 0
vn -1 3.178915E-07 0
vn -1 3.178915E-07 0
vn -1 1.907349E-07 0
vn 0 1 0
vn 0 1 0
vn 0 1 0
vn 0 1 0
vn 1 -2.543131E-07 0
vn 1 -5.086263E-07 0
vn 1 -5.086263E-07 0
vn 1 -2.543131E-07 0
vn 0 -1 0
vn 0 -1 0
vn 0 -1 0
vn 0 -1 0
vn -1 -1.271566E-07 0
vn -1 -3.814697E-07 1.556854E-07
vn -1 -3.814697E-07 1.556854E-07
vn -1 -1.271566E-07 0
vn 0 1 0
vn 0 1 0
vn 0 1 0
vn 0 1 0
vn 1 0 0
vn 1 0 0
vn 1 0 0
vn 1 0 0
vn 0 -1 0
vn 0 -1 0
vn 0 -1 0
vn 0 -1 0
vn -1 0 0
vn -1 0 0
vn -1 0 0
vn -1 0 0
vn 0 1 0
vn 0 1 0
vn 0 1 0
vn 0 1 0
vn 1 0 0
vn 1 0 0
vn 1 0 0
vn 1 0 0
vn 0 -1 0
vn 0 -1 0
vn 0 -1 0
vn 0 -1 0
vn -1 0 0
vn -1 0 0
vn -1 0 0
vn -1 0 0
vn 0 1 -1.228019E-07
vn 0 1 0
vn 0 1 0
vn 0 1 -1.228019E-07
vn 1 0 0
vn 1 -2.543131E-07 0
vn 1 -2.543131E-07 0
vn 1 0 0
vn 0 -1 0
vn 0 -1 0
vn 0 -1 0
vn 0 -1 0
vn -1 0 0
vn -1 1.907349E-07 0
vn -1 1.907349E-07 0
vn -1 0 0
vn 0 1 0
vn 0 1 0
vn 0 1 0
vn 0 1 0
vn 1 0 0
vn 1 -2.543131E-07 0
vn 1 -2.543131E-07 0
vn 1 0 0
vn 0 -1 0
vn 0 -1 0
vn 0 -1 0
vn 0 -1 0
vn -1 0 0
vn -1 -1.271566E-07 0
vn -1 -1.271566E-07 0
vn -1 0 0
vn 0 1 0
vn 0 1 0
vn 0 1 0
vn 0 1 0
vn -0.3826835 0.9238794 0
vn 1 1.156682E-07 0
vn -0.7982576 0.6023163 0
vn 1 1.609891E-07 0
vn -0.7982575 -0.6023164 0
vn -0.3826833 -0.9238795 0
vn -0.3826835 0.9238794 0
vn -0.7982576 0.6023163 0
vn -1 0 0
vn -1 0 0
vn -1 0 0
vn -1 0 0
vn 0.3826835 0.9238795 0
vn 0.7982575 0.6023163 0
vn -1 0 0
vn -1 1.073261E-07 0
vn 0.7982575 -0.6023163 0
vn 0.3826835 -0.9238795 0
vn 0.3826835 0.9238795 0
vn 0.7982575 0.6023163 0
vn 1 0 0
vn 1 0 0
vn 1 0 0
vn 1 0 0
vn 0 1.156655E-07 -1
vn 1.749358E-07 -1 -9.578896E-06
vn 0 -0.971579 0.2367159
vn 0 0 1
vn 0 0 1
vn 0 0.971579 0.2367159
vn -1.750934E-07 1 -9.578896E-06
vn 0 1.073245E-07 -1
vn 0 0 -1
vn -3.401225E-07 0.971579 0.2367159
vn 3.398907E-07 -0.971579 0.2367159
vn 0 -1.609892E-07 1
vn -1 -1.609892E-07 0
vn 1.07326E-07 -1 0
vn 1.07326E-07 -1 0
vn 1 0 0
vn -1 -1.609892E-07 0
vn 1 0 0
vn 0 1 0
vn 0 1 0
vn 0 1 0
vn 0 0 1
vn 0 1.07326E-07 1
vn -1.753623E-07 1 0
vn 0 0 -1
vn 1.753623E-07 -1 0
vn 0 -1 0
vn 0 1.07326E-07 -1
vn 0 -1.07326E-07 1
vn 3.498322E-07 -1 0
vn -3.498322E-07 1 0
vn 0 -1.07326E-07 -1
vn 1.746476E-07 -1 0
vn 1.746476E-07 -1 0
vn 1.746476E-07 -1 0
vn 1.746476E-07 -1 0
vn 1.746476E-07 -1 0
vn 1.746476E-07 -1 0
vn 1.746476E-07 -1 0
vn 1.746476E-07 -1 0
vn 1.750269E-07 -1 -1.216892E-07
vn 1.750269E-07 -1 -1.216892E-07
vn 1.750269E-07 -1 -1.216892E-07
vn 1.750269E-07 -1 -1.216892E-07
g my_shoppingmall_01_wall_left_1x2_0
f 3/3/3 2/2/2 1/1/1
f 6/6/6 5/5/5 4/4/4
f 9/9/9 8/8/8 7/7/7
f 10/10/10 9/9/9 7/7/7
f 13/13/13 12/12/12 11/11/11
f 14/14/14 13/13/13 11/11/11
f 17/17/17 16/16/16 15/15/15
f 18/18/18 17/17/17 15/15/15
f 21/21/21 20/20/20 19/19/19
f 22/22/22 21/21/21 19/19/19
f 25/25/25 24/24/24 23/23/23
f 26/26/26 25/25/25 23/23/23
f 29/29/29 28/28/28 27/27/27
f 30/30/30 29/29/29 27/27/27
f 33/33/33 32/32/32 31/31/31
f 34/34/34 33/33/33 31/31/31
f 37/37/37 36/36/36 35/35/35
f 38/38/38 37/37/37 35/35/35
f 41/41/41 40/40/40 39/39/39
f 42/42/42 41/41/41 39/39/39
f 45/45/45 44/44/44 43/43/43
f 46/46/46 45/45/45 43/43/43
f 49/49/49 48/48/48 47/47/47
f 50/50/50 49/49/49 47/47/47
f 53/53/53 52/52/52 51/51/51
f 54/54/54 53/53/53 51/51/51
f 57/57/57 56/56/56 55/55/55
f 58/58/58 57/57/57 55/55/55
f 61/61/61 60/60/60 59/59/59
f 62/62/62 61/61/61 59/59/59
f 65/65/65 64/64/64 63/63/63
f 66/66/66 65/65/65 63/63/63
f 69/69/69 68/68/68 67/67/67
f 70/70/70 69/69/69 67/67/67
f 73/73/73 72/72/72 71/71/71
f 74/74/74 73/73/73 71/71/71
f 77/77/77 76/76/76 75/75/75
f 78/78/78 77/77/77 75/75/75
f 81/81/81 80/80/80 79/79/79
f 82/82/82 81/81/81 79/79/79
f 85/85/85 84/84/84 83/83/83
f 86/86/86 85/85/85 83/83/83
f 89/89/89 88/88/88 87/87/87
f 90/90/90 89/89/89 87/87/87
f 93/93/93 92/92/92 91/91/91
f 94/94/94 93/93/93 91/91/91
f 97/97/97 96/96/96 95/95/95
f 98/98/98 97/97/97 95/95/95
f 101/101/101 100/100/100 99/99/99
f 102/102/102 101/101/101 99/99/99
f 105/105/105 104/104/104 103/103/103
f 106/106/106 105/105/105 103/103/103
f 109/109/109 108/108/108 107/107/107
f 110/110/110 109/109/109 107/107/107
f 113/113/113 112/112/112 111/111/111
f 114/114/114 113/113/113 111/111/111
f 117/117/117 116/116/116 115/115/115
f 118/118/118 117/117/117 115/115/115
f 121/121/121 120/120/120 119/119/119
f 122/122/122 121/121/121 119/119/119
f 125/125/125 124/124/124 123/123/123
f 126/126/126 125/125/125 123/123/123
f 129/129/129 128/128/128 127/127/127
f 130/130/130 129/129/129 127/127/127
f 133/133/133 132/132/132 131/131/131
f 134/134/134 133/133/133 131/131/131
f 137/137/137 136/136/136 135/135/135
f 138/138/138 137/137/137 135/135/135
f 141/141/141 140/140/140 139/139/139
f 142/142/142 141/141/141 139/139/139
f 145/145/145 144/144/144 143/143/143
f 146/146/146 145/145/145 143/143/143
f 149/149/149 148/148/148 147/147/147
f 150/150/150 149/149/149 147/147/147
f 153/153/153 152/152/152 151/151/151
f 152/152/152 154/154/154 151/151/151
f 152/152/152 155/155/155 154/154/154
f 155/155/155 156/156/156 154/154/154
f 156/156/156 155/155/155 157/157/157
f 155/155/155 158/158/158 157/157/157
f 161/161/161 160/160/160 159/159/159
f 162/162/162 161/161/161 159/159/159
f 165/165/165 164/164/164 163/163/163
f 166/166/166 165/165/165 163/163/163
f 167/167/167 165/165/165 166/166/166
f 168/168/168 167/167/167 166/166/166
f 168/168/168 169/169/169 167/167/167
f 169/169/169 170/170/170 167/167/167
f 173/173/173 172/172/172 171/171/171
f 174/174/174 173/173/173 171/171/171
f 177/177/177 176/176/176 175/175/175
f 176/176/176 177/177/177 178/178/178
f 179/179/179 176/176/176 178/178/178
f 179/179/179 178/178/178 180/180/180
f 181/181/181 180/180/180 175/175/175
f 181/181/181 179/179/179 180/180/180
f 176/176/176 182/182/182 175/175/175
f 182/182/182 181/181/181 175/175/175
f 182/182/182 183/183/183 181/181/181
f 182/182/182 176/176/176 183/183/183
f 183/183/183 184/184/184 181/181/181
f 181/181/181 184/184/184 179/179/179
f 176/176/176 185/185/185 183/183/183
f 184/184/184 186/186/186 179/179/179
f 186/186/186 185/185/185 176/176/176
f 179/179/179 186/186/186 176/176/176
f 189/189/189 188/188/188 187/187/187
f 188/188/188 189/189/189 190/190/190
f 191/191/191 189/189/189 187/187/187
f 189/189/189 192/192/192 190/190/190
f 191/191/191 187/187/187 193/193/193
f 190/190/190 192/192/192 193/193/193
f 194/194/194 191/191/191 193/193/193
f 192/192/192 194/194/194 193/193/193
f 197/197/197 196/196/196 195/195/195
f 198/198/198 197/197/197 195/195/195
f 198/198/198 195/195/195 199/199/199
f 197/197/197 200/200/200 196/196/196
f 200/200/200 201/201/201 196/196/196
f 202/202/202 199/199/199 201/201/201
f 202/202/202 198/198/198 199/199/199
f 200/200/200 202/202/202 201/201/201
f 197/197/197 203/203/203 200/200/200
f 203/203/203 204/204/204 200/200/200
f 200/200/200 204/204/204 202/202/202
f 205/205/205 203/203/203 197/197/197
f 198/198/198 205/205/205 197/197/197
f 204/204/204 206/206/206 202/202/202
f 206/206/206 205/205/205 198/198/198
f 202/202/202 206/206/206 198/198/198
g my_shoppingmall_01_wall_left_1x2_1
f 209/209/209 208/208/208 207/207/207
f 210/210/210 209/209/209 207/207/207
f 213/213/213 212/212/212 211/211/211
f 214/214/214 213/213/213 211/211/211
f 217/217/217 216/216/216 215/215/215
f 218/218/218 217/217/217 215/215/215
